<?xml version="1.0" standalone="no"?>
<!DOCTYPE svg PUBLIC "-//W3C//DTD SVG 20010904//EN"
 "http://www.w3.org/TR/2001/REC-SVG-20010904/DTD/svg10.dtd">
<svg version="1.0" xmlns="http://www.w3.org/2000/svg"
 width="1080.000000pt" height="1080.000000pt" viewBox="0 0 1080.000000 1080.000000"
 preserveAspectRatio="xMidYMid meet">
<metadata>
Created by potrace 1.11, written by Peter Selinger 2001-2013
</metadata>
<g transform="translate(0.000000,1080.000000) scale(0.100000,-0.100000)"
fill="#000000" stroke="none">
<path d="M2379 8650 c-302 -36 -647 -196 -884 -411 -170 -154 -286 -310 -384
-514 -73 -152 -119 -299 -150 -486 -15 -93 -16 -3574 0 -3668 18 -111 49 -241
76 -321 116 -346 387 -682 707 -874 187 -113 381 -184 608 -221 136 -23 1450
-28 3993 -17 2069 9 2081 9 2176 30 206 46 407 129 574 237 99 64 146 102 259
213 259 254 424 586 479 963 16 113 16 3526 -1 3639 -30 209 -95 413 -179 563
-18 33 -33 61 -33 64 0 2 -27 44 -60 91 -246 358 -583 584 -1034 695 l-91 22
-2995 1 c-1647 1 -3025 -2 -3061 -6z m5666 -269 c380 -8 393 -9 489 -35 513
-140 882 -525 1005 -1050 24 -99 43 -574 25 -620 -6 -15 -101 -16 -1078 -11
-629 4 -1097 10 -1135 16 -76 12 -136 38 -216 95 -94 66 -158 148 -203 261
-23 60 -26 81 -26 183 0 96 4 125 24 175 31 81 77 150 138 210 101 97 191 138
361 164 87 13 123 36 145 92 30 74 -14 155 -98 178 -73 19 -274 -23 -396 -84
-106 -53 -240 -172 -310 -275 -56 -83 -87 -150 -116 -250 -24 -82 -26 -102
-22 -237 4 -156 13 -197 73 -327 32 -71 129 -200 191 -255 107 -95 243 -166
402 -207 10 -3 12 -206 10 -996 l-3 -992 -30 -6 c-185 -42 -218 -53 -341 -115
-388 -197 -624 -581 -624 -1013 0 -145 32 -343 62 -377 4 -5 8 -15 8 -22 0
-24 88 -192 134 -256 25 -35 72 -92 105 -129 34 -36 61 -71 61 -77 0 -13
-2546 -16 -2554 -3 -2 4 24 41 60 81 169 196 256 386 290 634 15 103 15 138 5
227 -38 346 -189 614 -461 822 -127 96 -294 169 -483 209 l-57 12 2 1000 3
1000 55 14 c77 19 224 92 297 147 155 117 258 275 310 476 21 82 24 110 19
200 -8 168 -45 286 -131 420 -134 208 -337 337 -590 376 -97 14 -153 7 -189
-24 -64 -58 -60 -171 8 -215 14 -9 67 -23 118 -31 156 -24 251 -69 348 -167
200 -202 215 -502 36 -721 -47 -58 -141 -131 -207 -161 -98 -45 -99 -45 -1236
-51 -745 -4 -1084 -3 -1088 4 -11 17 -6 488 5 554 78 462 361 838 775 1031 95
45 141 61 270 97 78 21 99 22 765 28 1060 9 4559 9 4995 1z m-4837 -2978 l-3
-988 -979 -3 c-539 -1 -984 2 -988 6 -6 6 -13 1756 -8 1970 0 1 446 2 990 2
l990 0 -2 -987z m6357 -3 l0 -985 -987 -3 -988 -2 0 990 0 990 988 -2 987 -3
0 -985z m-7 -1275 c23 -8 8 -515 -19 -619 -6 -22 -15 -59 -21 -81 -41 -155
-148 -371 -240 -482 -237 -285 -482 -431 -863 -515 -90 -19 -1078 -15 -1155 5
-204 54 -364 155 -484 306 -134 167 -186 319 -186 541 0 157 16 237 70 355
116 251 362 446 625 494 40 8 2249 3 2273 -4z m-6022 -15 c163 -44 270 -101
383 -206 122 -113 193 -220 244 -364 71 -206 60 -426 -33 -626 -51 -112 -105
-186 -191 -270 -113 -108 -172 -144 -339 -205 l-65 -24 -540 0 c-552 0 -576 1
-735 41 -453 113 -818 458 -971 914 -46 139 -58 241 -59 509 -1 130 -1 239 0
244 0 4 502 7 1115 7 1089 0 1117 0 1191 -20z"/>
</g>
</svg>
